# xmcd
#
# Track frame offsets:
#	150
#	26530
#	40945
#	58060
#	75444
#	95954
#	121512
#	144402
#	159076
#	176946
#	203224
#	215579
#
# Disc length: 3170 seconds
#
# Revision: 1
# Processed by: cddbd v1.5.2PL0 Copyright (c) Steve Scherf et al.
# Submitted via: EasyCDDAExtractor 12.1.0.1
#
DISCID=a00c600c
DTITLE=Procol Harum - Broken Barricades
DYEAR=2009
DGENRE=Progressive Rock
TTITLE0=Simple sister
TTITLE1=Broken barricades
TTITLE2=Memorial drive
TTITLE3=Luskus delph
TTITLE4=Power failure
TTITLE5=Song for a dreamer
TTITLE6=Playmate of the mouth
TTITLE7=Poor Mohammed
TTITLE8=Broken barricades (raw track)
TTITLE9=Simple sister (raw track)
TTITLE10=Poor Mohammed (raw track)
TTITLE11=Song for a dreamer (king Jimi) (instrumental)
EXTD=
EXTT0=
EXTT1=
EXTT2=
EXTT3=
EXTT4=
EXTT5=
EXTT6=
EXTT7=
EXTT8=
EXTT9=
EXTT10=
EXTT11=
PLAYORDER=
